<svg aria-hidden="true" style="position: absolute; width: 0; height: 0; overflow: hidden;" version="1.1" xmlns="http://www.w3.org/2000/svg" xmlns:xlink="http://www.w3.org/1999/xlink">
<defs>
<symbol id="icon-info" viewBox="0 0 32 32">
<path d="M22.646 28.547l-0.447 1.828c-1.341 0.529-2.413 0.932-3.211 1.209s-1.727 0.416-2.784 0.416c-1.624 0-2.887-0.398-3.788-1.188-0.901-0.793-1.351-1.799-1.351-3.018 0-0.472 0.033-0.958 0.101-1.452s0.178-1.053 0.327-1.677l1.676-5.933c0.149-0.568 0.276-1.107 0.377-1.616 0.103-0.506 0.153-0.971 0.153-1.39 0-0.758-0.157-1.288-0.469-1.586s-0.908-0.448-1.793-0.448c-0.433 0-0.879 0.069-1.333 0.204-0.456 0.135-0.846 0.265-1.173 0.386l0.448-1.829c1.098-0.447 2.148-0.83 3.152-1.148s1.953-0.478 2.85-0.478c1.613 0 2.857 0.39 3.731 1.169s1.311 1.791 1.311 3.037c0 0.258-0.029 0.712-0.090 1.361-0.060 0.651-0.172 1.247-0.336 1.789l-1.669 5.91c-0.137 0.475-0.26 1.017-0.367 1.628-0.11 0.607-0.163 1.070-0.163 1.381 0 0.785 0.175 1.321 0.526 1.605 0.353 0.285 0.962 0.427 1.826 0.427 0.406 0 0.868-0.072 1.381-0.213 0.512-0.141 0.885-0.266 1.116-0.374zM23.069 3.737c0 1.030-0.388 1.909-1.168 2.632-0.778 0.726-1.715 1.089-2.811 1.089-1.1 0-2.040-0.363-2.826-1.089-0.785-0.723-1.179-1.602-1.179-2.632 0-1.028 0.393-1.908 1.179-2.641 0.785-0.731 1.726-1.096 2.826-1.096 1.096 0 2.034 0.366 2.811 1.096 0.78 0.732 1.168 1.613 1.168 2.641z"></path>
</symbol>
<symbol id="icon-info2" viewBox="0 0 32 32">
<path d="M22.646 28.547l-0.447 1.828c-1.341 0.529-2.413 0.932-3.211 1.209s-1.727 0.416-2.784 0.416c-1.624 0-2.887-0.398-3.788-1.188-0.901-0.793-1.351-1.799-1.351-3.018 0-0.472 0.033-0.958 0.101-1.452s0.178-1.053 0.327-1.677l1.676-5.933c0.149-0.568 0.276-1.107 0.377-1.616 0.103-0.506 0.153-0.971 0.153-1.39 0-0.758-0.157-1.288-0.469-1.586s-0.908-0.448-1.793-0.448c-0.433 0-0.879 0.069-1.333 0.204-0.456 0.135-0.846 0.265-1.173 0.386l0.448-1.829c1.098-0.447 2.148-0.83 3.152-1.148s1.953-0.478 2.85-0.478c1.613 0 2.857 0.39 3.731 1.169s1.311 1.791 1.311 3.037c0 0.258-0.029 0.712-0.090 1.361-0.060 0.651-0.172 1.247-0.336 1.789l-1.669 5.91c-0.137 0.475-0.26 1.017-0.367 1.628-0.11 0.607-0.163 1.070-0.163 1.381 0 0.785 0.175 1.321 0.526 1.605 0.353 0.285 0.962 0.427 1.826 0.427 0.406 0 0.868-0.072 1.381-0.213 0.512-0.141 0.885-0.266 1.116-0.374zM23.069 3.737c0 1.030-0.388 1.909-1.168 2.632-0.778 0.726-1.715 1.089-2.811 1.089-1.1 0-2.040-0.363-2.826-1.089-0.785-0.723-1.179-1.602-1.179-2.632 0-1.028 0.393-1.908 1.179-2.641 0.785-0.731 1.726-1.096 2.826-1.096 1.096 0 2.034 0.366 2.811 1.096 0.78 0.732 1.168 1.613 1.168 2.641z"></path>
</symbol>
<symbol id="icon-info3" viewBox="0 0 32 32">
<path d="M22.646 28.547l-0.447 1.828c-1.341 0.529-2.413 0.932-3.211 1.209s-1.727 0.416-2.784 0.416c-1.624 0-2.887-0.398-3.788-1.188-0.901-0.793-1.351-1.799-1.351-3.018 0-0.472 0.033-0.958 0.101-1.452s0.178-1.053 0.327-1.677l1.676-5.933c0.149-0.568 0.276-1.107 0.377-1.616 0.103-0.506 0.153-0.971 0.153-1.39 0-0.758-0.157-1.288-0.469-1.586s-0.908-0.448-1.793-0.448c-0.433 0-0.879 0.069-1.333 0.204-0.456 0.135-0.846 0.265-1.173 0.386l0.448-1.829c1.098-0.447 2.148-0.83 3.152-1.148s1.953-0.478 2.85-0.478c1.613 0 2.857 0.39 3.731 1.169s1.311 1.791 1.311 3.037c0 0.258-0.029 0.712-0.090 1.361-0.060 0.651-0.172 1.247-0.336 1.789l-1.669 5.91c-0.137 0.475-0.26 1.017-0.367 1.628-0.11 0.607-0.163 1.070-0.163 1.381 0 0.785 0.175 1.321 0.526 1.605 0.353 0.285 0.962 0.427 1.826 0.427 0.406 0 0.868-0.072 1.381-0.213 0.512-0.141 0.885-0.266 1.116-0.374zM23.069 3.737c0 1.030-0.388 1.909-1.168 2.632-0.778 0.726-1.715 1.089-2.811 1.089-1.1 0-2.040-0.363-2.826-1.089-0.785-0.723-1.179-1.602-1.179-2.632 0-1.028 0.393-1.908 1.179-2.641 0.785-0.731 1.726-1.096 2.826-1.096 1.096 0 2.034 0.366 2.811 1.096 0.78 0.732 1.168 1.613 1.168 2.641z"></path>
</symbol>
</defs>
</svg>
